<svg id="Layer_1" data-name="Layer 1" xmlns="http://www.w3.org/2000/svg" viewBox="0 0 134 35"><defs><style>.cls-1{fill:#db8759;}</style></defs><title>Ribbon</title><path class="cls-1" d="M39.0522,14.8162c.1-.9022-4.0774,1.1285-4.0142,1.8734.7276,2.532,1.1371,9.7006.4017,12.4436S31.2248,32.2109,30.02,32.01,29.0171,30.94,29.0171,30.94c3.01-14.9308-.29-29.8041-.5355-30.8413C28.37-.56,23.91,2.2714,24.2,3.3094c3.4114,10.5584,1.8064,21.8767,1.4716,24.7531-.3316,2.8514-2.1082,3.5338-3.4131,3.5451-1.29-.0061-1.4185-.6709-1.5515-1.2032-.1342-.5355,1.3378-8.898,1.3378-8.898s1.5532-6.2836-1.492-6.32a3.7176,3.7176,0,0,0-1.5711.3654A45.07,45.07,0,0,0,5.9354,24.093c-3.433,3.0933-4.7467,5.3052-4.7316,6.8856-.0363,3.5958,5.9594,3.922,10.4492,3.9171a1.4221,1.4221,0,0,0,.3042-.0094c.3675-.0118,3.2385-3.3066,2.9334-3.52-.1851-.1876-3.1678.487-5.8912.51-3.01-.1113-2.5422-2.5422.602-6.0213,2.0614-2.2808,5.4748-5.3761,7.4114-5.44.985-.0041,1.57.8076,1.3672,2.9652,0,0-1.071,6.4288-.7758,9.1734.1407,1.3052,1.5058,1.8831,3.1545,2.0426,2.6531.2691,6.0723-.57,6.2937-1.2008,2.0454,2.42,7.9987,1.866,9.9928-.7162C39.8549,29.0662,39.038,15.5621,39.0522,14.8162Z"/><path class="cls-1" d="M63.0046,15.1857c-.8646-.009-3.8307,3.7111-3.01,3.6129.1954-.0539,4.6762-.556,5.6335-.52,3.0113.1113,2.5569,2.5553-.602,6.0213-10.9656,12.0312-8.4306.7333-8.1537-2.7727.0363-.405.0686-.8093.0935-1.2037.4812-6.282.8973-14.2439-1.6046-20.1522-.2668-.6587-4.54,2.6527-4.17,3.457,3.4041,7.745,1.3015,25.16,1.2962,25.4566-.1215.6824-1.2,7.3742,3.1059,5.5172.3752-.1542,8.5024-4.4707,13.0465-8.5407C80.7142,15.2468,69.0525,15.1208,63.0046,15.1857Z"/><path class="cls-1" d="M102.6656,15.1857c-.8646-.009-3.8307,3.7111-3.0117,3.6129.1966-.0539,4.6782-.556,5.6351-.52,3.01.1113,2.5566,2.5553-.6028,6.0213-10.9651,12.0312-8.4306.7333-8.1541-2.7727.0376-.405.0693-.8093.0938-1.2037.48-6.282.8965-14.2439-1.6046-20.1522-.2667-.6587-4.54,2.6527-4.17,3.457,3.4032,7.745,1.3011,25.16,1.2962,25.4566-.1224.6824-1.2008,7.3742,3.1064,5.5172.3744-.1542,8.5016-4.4707,13.0452-8.5407C120.3744,15.2468,108.7134,15.1208,102.6656,15.1857Z"/><path class="cls-1" d="M37.267,10.6571c-.0779.0722-.37.3744-.5706.0318a21.7719,21.7719,0,0,0-2.84-2.5439c-.159-.18.1073-.4743.2113-.5783l2.1107-2.4742a.4086.4086,0,0,1,.48-.0208s2.3412,1.6837,2.8066,2.732a.4588.4588,0,0,1-.1024.5734C39.0131,8.6566,37.3453,10.5853,37.267,10.6571Z"/><path class="cls-1" d="M92.2169,28.0625c-.3312,2.8514-2.1087,3.5338-3.4138,3.5451-1.29-.0061-1.4178-.6709-1.5515-1.2032-.133-.5355,1.3386-8.898,1.3386-8.898s1.5523-6.2836-1.492-6.32a3.714,3.714,0,0,0-1.5711.3654A45.0723,45.0723,0,0,0,72.48,24.093c-3.4335,3.0933-4.7467,5.3052-4.7317,6.8856-.0367,3.5958,5.9594,3.922,10.4492,3.9171a1.4318,1.4318,0,0,0,.3051-.0094c.367-.0118,3.2376-3.3066,2.9334-3.52-.186-.1876-3.1692.487-5.892.51-3.0109-.1113-2.5419-2.5422.602-6.0213,2.0621-2.2808,5.4752-5.3761,7.4117-5.44.9846-.0041,1.5711.8076,1.3672,2.9652,0,0-1.071,6.4288-.7758,9.1734.14,1.3052,1.5051,1.8831,3.1545,2.0426,2.6528.2691,6.0723-.57,6.2934-1.2008C94.1078,31.8116,92.55,25.1861,92.2169,28.0625Z"/><path class="cls-1" d="M131.8224,28.0625c-.332,2.8514-2.1087,3.5338-3.413,3.5451-1.2906-.0061-1.4194-.6709-1.5516-1.2032-.1346-.5355,1.337-8.898,1.337-8.898s1.554-6.2836-1.492-6.32a3.7242,3.7242,0,0,0-1.5711.3654,45.0724,45.0724,0,0,0-13.0452,8.5407c-3.4342,3.0933-4.7467,5.3052-4.732,6.8856-.0359,3.5958,5.9589,3.922,10.45,3.9171a1.4051,1.4051,0,0,0,.3026-.0094c.3687-.0118,3.2393-3.3066,2.9342-3.52-.1852-.1876-3.1675.487-5.8913.51-3.0109-.1113-2.5426-2.5422.6028-6.0213,2.0614-2.2808,5.4744-5.3761,7.411-5.44.9846-.0041,1.5695.8076,1.3663,2.9652,0,0-1.07,6.4288-.7749,9.1734.14,1.3052,1.5058,1.8831,3.1552,2.0426,2.6519.2691,6.0707-.57,6.2918-1.2008C133.7125,31.8116,132.1569,25.1861,131.8224,28.0625Z"/></svg>