<svg xmlns="http://www.w3.org/2000/svg" xmlns:xlink="http://www.w3.org/1999/xlink" viewBox="0 0 186.0001 131"><defs><style>.cls-1{fill:none;}.cls-2{isolation:isolate;}.cls-3{opacity:0.9;mix-blend-mode:multiply;}.cls-4,.cls-5{fill:#333;}.cls-5{opacity:0.95;}.cls-6{fill:#f9efdb;}.cls-7{clip-path:url(#clip-path);}.cls-8{opacity:0.25;}.cls-9{fill:#fff;}.cls-10{fill:#db8759;}</style><clipPath id="clip-path"><path class="cls-1" d="M92.9887,87.9975l82-38.7957V22h-164V49.2018Z"/></clipPath></defs><title>Ribbon</title><g class="cls-2"><g id="Layer_1" data-name="Layer 1"><g class="cls-3"><path class="cls-4" d="M183.931,42.7584,101.8206,2.345a20,20,0,0,0-17.6638,0L2.0465,42.7584,92.9887,85.7848Z"/><polygon class="cls-4" points="0 43.997 0 43.997 0 130.997 91.943 87.497 0 43.997"/><polygon class="cls-4" points="94.057 87.497 186 130.997 186 43.997 186 43.997 94.057 87.497"/><polygon class="cls-5" points="4.665 131 181.312 131 92.989 89.213 4.665 131"/></g><path class="cls-6" d="M93,87.9994l82-38.7957V22H11V49.2037Z"/><g class="cls-7"><g class="cls-8"><path class="cls-9" d="M50.9171,69.8359,38.512,57.5467l.08-17.4612-17.46.0829L8.8454,27.7612-3.4417,40.1684l-17.46-.0829.08,17.4612L-33.2263,69.8359l12.4049,12.2868-.08,17.4632,17.46-.0835L8.8454,111.909,21.1324,99.5024l17.46.0835-.08-17.4632ZM-4.8412,43.4037l-2.247,8.1984-8.26-8.2616Zm-6.7275,24.8048-5.1006-8.943,9.9287-2.7186L4.9285,68.2085ZM4.9285,71.4616-6.7407,83.1246l-9.9287-2.7207,5.1006-8.9453ZM-9.3843,53.902l-8.1977,2.2436-.065-10.5064Zm-10.1363,6.9235,4.2129,7.383h-11.687Zm-7.4742,10.6361h11.687l-4.2129,7.3837Zm9.4128,12.0624,8.1977,2.2441-8.2627,8.2636Zm2.2336,12.8069,8.26-8.2643,2.247,8.1991Zm22.5712,9.3476L-.1615,98.2037,7.2229,93.995Zm0-15.4254-8.9414,5.0981-2.7238-9.93L7.2229,73.7568Zm0-24.3432L-4.4423,54.2476l2.7238-9.9287,8.9414,5.0967Zm0-20.2335L-.1615,41.4642l7.3844-7.4727Zm37.4625,22.532H32.9984l4.2129-7.383Zm-31.9232,0L24.4314,56.5469,34.36,59.2655l-5.1006,8.943ZM34.36,80.404l-9.9287,2.7207L12.7623,71.4616l16.4972-.0029Zm.9126-24.2584L27.0749,53.902l8.2628-8.2628ZM33.0391,43.34l-8.26,8.2616-2.247-8.1984ZM10.4678,33.9915l7.3843,7.4727-7.3843,4.2123Zm0,15.4241,8.9415-5.0967,2.7237,9.9287L10.4678,65.91Zm0,56.263V93.995l7.3843,4.2087Zm8.9415-10.3272-8.9415-5.0981V73.7568L22.133,85.4212Zm3.1226.9144,2.247-8.1991,8.26,8.2643Zm4.543-10.4976,8.1978-2.2441.065,10.5077Zm5.9235-14.3065h11.687l-7.4742,7.3837Z"/><path class="cls-9" d="M8.8981,13.66-3.507,1.371l.08-17.4612-17.46.0828L-33.1736-28.4146-45.4607-16.0074-62.92-16.09l.08,17.4612L-75.2453,13.66-62.84,25.9469-62.92,43.41l17.46-.0835,12.2871,12.4066,12.2871-12.4066,17.46.0835-.0149-3.2418L-3.507,25.9469ZM-46.86-12.7721l-2.247,8.1985-8.26-8.2616Zm-6.7275,24.8048L-58.6883,3.09-48.76.3711l11.6691,11.6616Zm16.4972,3.2531L-48.76,26.9489l-9.9287-2.7208,5.1006-8.9451ZM-51.4033-2.2737-59.6009-.03l-.065-10.5063ZM-61.54,4.65l4.2129,7.383h-11.687Zm-7.4742,10.6361h11.687L-61.54,22.67Zm9.4128,12.0624,8.1977,2.2442-8.2627,8.2636Zm2.2336,12.8069,8.26-8.2642L-46.86,40.09Zm22.5712,9.3476-7.3844-7.4748,7.3844-4.2087Zm0-15.4252-8.9414,5.0981-2.7238-9.93L-34.7961,17.581Zm0-24.3433L-46.4613-1.9281l2.7238-9.9288L-34.7961-6.76Zm0-20.2335-7.3844-4.2122,7.3844-7.4727ZM2.6665,12.0327H-9.0206L-4.8077,4.65Zm-31.9232,0L-17.5875.3711-7.6589,3.09l-5.1006,8.943ZM-7.6589,24.2282l-9.9287,2.7208L-29.2567,15.2858-12.76,15.283ZM-6.7463-.03-14.944-2.2737l8.2628-8.2628ZM-8.98-12.8352l-8.26,8.2616-2.247-8.1985Zm-22.5712-9.3489,7.3843,7.4727-7.3843,4.2122Zm0,15.4241,8.9415-5.0968,2.7237,9.9288L-31.5511,9.7342Zm0,56.2629V37.8193l7.3843,4.2087ZM-22.61,39.1756l-8.9415-5.0981V17.581l11.6652,11.6645Zm3.1226.9144,2.247-8.1991,8.26,8.2642Zm4.543-10.4976,8.1978-2.2442.065,10.5078Zm5.9235-14.3067H2.6665L-4.8077,22.67Z"/><path class="cls-9" d="M93.0415,13.66,80.6365,1.371l.08-17.4612-17.46.0828L50.97-28.4146,38.6827-16.0074,21.223-16.09l.08,17.4612L8.8981,13.66,21.303,25.9469l-.0653,14.2215L21.223,43.41l17.46-.0835L50.97,55.7333,63.2567,43.3267l17.46.0835-.08-17.4633ZM37.2831-12.7721l-2.247,8.1985-8.26-8.2616ZM30.5557,12.0327,25.4551,3.09,35.3837.3711,47.0529,12.0327Zm16.4972,3.2531L35.3837,26.9489l-9.9287-2.7208,5.1006-8.9451ZM32.74-2.2737,24.5425-.03l-.065-10.5063ZM22.6039,4.65l4.2128,7.383H15.13ZM15.13,15.2858h11.687L22.6039,22.67Zm9.4128,12.0624L32.74,29.5924,24.4775,37.856Zm2.2336,12.8069,8.26-8.2642,2.247,8.1991Zm22.5712,9.3476L41.9629,42.028l7.3845-4.2087Zm0-15.4252-8.9416,5.0981-2.7236-9.93L49.3473,17.581Zm0-24.3433L37.6821-1.9281l2.7236-9.9288L49.3473-6.76Zm0-20.2335-7.3845-4.2122,7.3845-7.4727ZM86.81,12.0327H75.1227l4.213-7.383Zm-31.9232,0L66.5557.3711,76.4845,3.09l-5.1006,8.943ZM76.4845,24.2282l-9.9288,2.7208L54.8867,15.2858l16.4972-.0027ZM77.397-.03,69.1993-2.2737l8.2627-8.2628Zm-2.2335-12.805-8.26,8.2616-2.247-8.1985ZM52.5921-22.1842l7.3845,7.4727-7.3845,4.2122Zm0,15.4241,8.9416-5.0968,2.7236,9.9288L52.5921,9.7342Zm0,56.2629V37.8193l7.3845,4.2087Zm8.9416-10.3271-8.9416-5.0981V17.581L64.2574,29.2455Zm3.1227.9144,2.247-8.1991,8.26,8.2642Zm4.5429-10.4976,8.1977-2.2442.065,10.5078Zm5.9234-14.3067H86.81L79.3357,22.67Z"/><path class="cls-9" d="M135.06,69.8359l-12.405-12.2892.08-17.4612-17.46.0829L92.9888,27.7612,80.7017,40.1684l-17.46-.0829.08,17.4612L50.9171,69.8359,63.322,82.1227l-.08,17.4632,17.46-.0835L92.9888,111.909l12.2869-12.4066,17.46.0835-.0149-3.2418-.0652-14.2214ZM79.3021,43.4037l-2.247,8.1984-8.26-8.2616ZM72.5747,68.2085l-5.1006-8.943,9.9287-2.7186L89.0719,68.2085Zm16.4972,3.2531L77.4027,83.1246,67.474,80.404l5.1006-8.9453ZM74.7591,53.902l-8.1977,2.2436-.065-10.5064ZM64.6229,60.8255l4.2128,7.383H57.1486ZM57.1486,71.4616H68.8357l-4.2128,7.3837ZM66.5615,83.524l8.1977,2.2441-8.2627,8.2636Zm2.2336,12.8069,8.26-8.2643,2.247,8.1991Zm22.5712,9.3476-7.3845-7.4749,7.3845-4.2087Zm0-15.4254-8.9416,5.0981-2.7236-9.93L91.3663,73.7568Zm0-24.3432L79.7011,54.2476l2.7236-9.9287,8.9416,5.0967Zm0-20.2335-7.3845-4.2123,7.3845-7.4727Zm37.4625,22.532H117.1417l4.213-7.383Zm-31.9232,0,11.669-11.6616,9.9288,2.7186-5.1006,8.943ZM118.5035,80.404l-9.9288,2.7207L96.9057,71.4616l16.4972-.0029Zm.9125-24.2584-8.1977-2.2436,8.2627-8.2628ZM117.1825,43.34l-8.26,8.2616-2.247-8.1984ZM94.6111,33.9915l7.3845,7.4727-7.3845,4.2123Zm0,15.4241,8.9416-5.0967,2.7236,9.9287L94.6111,65.91Zm0,56.263V93.995l7.3845,4.2087Zm8.9416-10.3272-8.9416-5.0981V73.7568l11.6652,11.6644Zm3.1227.9144,2.247-8.1991,8.26,8.2643Zm4.5429-10.4976,8.1977-2.2441.065,10.5077Zm5.9234-14.3065h11.6872l-7.4742,7.3837Z"/><path class="cls-9" d="M177.0795,13.66,164.6744,1.371l.08-17.4612-17.46.0828L135.0077-28.4146,122.7207-16.0074l-17.46-.0828.08,17.4612L92.936,13.66,105.341,25.9469l-.0653,14.2215-.0148,3.2418,17.46-.0835,12.2871,12.4066,12.2869-12.4066,17.46.0835-.08-17.4633ZM121.321-12.7721l-2.247,8.1985-8.26-8.2616Zm-6.7274,24.8048L109.493,3.09,119.4217.3711l11.6691,11.6616Zm16.4972,3.2531L119.4217,26.9489l-9.9287-2.7208,5.1006-8.9451ZM116.7781-2.2737,108.58-.03l-.065-10.5063ZM106.6419,4.65l4.2128,7.383H99.1676ZM99.1676,15.2858h11.6872L106.6419,22.67ZM108.58,27.3482l8.1977,2.2442-8.2627,8.2636Zm2.2336,12.8069,8.26-8.2642,2.247,8.1991Zm22.5712,9.3476-7.3845-7.4748,7.3845-4.2087Zm0-15.4252-8.9416,5.0981-2.7236-9.93L133.3853,17.581Zm0-24.3433L121.72-1.9281l2.7236-9.9288L133.3853-6.76Zm0-20.2335-7.3845-4.2122,7.3845-7.4727Zm37.4625,22.532H159.1607l4.213-7.383Zm-31.9232,0L150.5937.3711,160.5225,3.09l-5.1006,8.943Zm21.5978,12.1955-9.9288,2.7208-11.669-11.6632,16.4972-.0027ZM161.4349-.03l-8.1977-2.2435L161.5-10.5365Zm-2.2335-12.805-8.26,8.2616-2.247-8.1985ZM136.63-22.1842l7.3845,7.4727L136.63-10.4993Zm0,15.4241,8.9416-5.0968,2.7236,9.9288L136.63,9.7342Zm0,56.2629V37.8193l7.3845,4.2087Zm8.9416-10.3271L136.63,34.0775V17.581l11.6652,11.6645Zm3.1227.9144,2.247-8.1991,8.26,8.2642Zm4.5429-10.4976,8.1977-2.2442L161.5,37.856Zm5.9234-14.3067h11.6872L163.3736,22.67Z"/><path class="cls-9" d="M219.2038,69.8359,206.7989,57.5467l.08-17.4612-17.46.0829L177.1322,27.7612,164.8451,40.1684l-17.46-.0829.08,17.4612L135.06,69.8359l12.4049,12.2868-.08,17.4632,17.46-.0835,12.2871,12.4066,12.2869-12.4066,17.46.0835-.0149-3.2418-.0653-14.2214ZM163.4455,43.4037l-2.247,8.1984-8.26-8.2616Zm-6.7275,24.8048-5.1006-8.943,9.9288-2.7186,11.669,11.6616Zm16.4972,3.2531-11.669,11.6631-9.9288-2.7207,5.1006-8.9453Zm-14.3126-17.56-8.1977,2.2436-.065-10.5064Zm-10.1363,6.9235,4.2129,7.383H141.292ZM141.292,71.4616h11.6872l-4.2129,7.3837Zm9.4129,12.0624,8.1977,2.2441L150.64,94.0317Zm2.2335,12.8069,8.26-8.2643,2.247,8.1991Zm22.5714,9.3476-7.3845-7.4749L175.51,93.995Zm0-15.4254-8.9416,5.0981-2.7236-9.93L175.51,73.7568Zm0-24.3432L163.8445,54.2476l2.7236-9.9287,8.9416,5.0967Zm0-20.2335-7.3845-4.2123,7.3845-7.4727Zm37.4626,22.532H201.2851l4.2129-7.383Zm-31.9232,0,11.669-11.6616,9.9288,2.7186-5.1006,8.943ZM202.6469,80.404l-9.9288,2.7207-11.669-11.6631,16.4972-.0029Zm.9125-24.2584-8.1977-2.2436,8.2627-8.2628ZM201.3259,43.34l-8.26,8.2616-2.247-8.1984Zm-22.5714-9.3489,7.3845,7.4727-7.3845,4.2123Zm0,15.4241,8.9416-5.0967,2.7237,9.9287L178.7545,65.91Zm0,56.263V93.995l7.3845,4.2087Zm8.9416-10.3272-8.9416-5.0981V73.7568L190.42,85.4212Zm3.1227.9144,2.247-8.1991,8.26,8.2643Zm4.543-10.4976,8.1977-2.2441.065,10.5077Zm5.9234-14.3065h11.6872l-7.4743,7.3837Z"/><path class="cls-9" d="M261.2228,13.66,248.8178,1.371l.08-17.4612-17.46.0828L219.1511-28.4146,206.8641-16.0074l-17.46-.0828.08,17.4612L177.0795,13.66l12.4049,12.2868-.0653,14.2215-.0149,3.2418,17.46-.0835,12.2869,12.4066,12.2871-12.4066,17.46.0835-.08-17.4633ZM205.4645-12.7721l-2.247,8.1985-8.26-8.2616Zm-6.7275,24.8048L193.6363,3.09,203.5651.3711l11.669,11.6616Zm16.4972,3.2531-11.669,11.6632-9.9288-2.7208,5.1007-8.9451ZM200.9215-2.2737,192.7238-.03l-.065-10.5063ZM190.7852,4.65l4.2129,7.383H183.311ZM183.311,15.2858h11.6872L190.7852,22.67Zm9.4129,12.0624,8.1977,2.2442-8.2627,8.2636Zm2.2335,12.8069,8.26-8.2642,2.247,8.1991Zm22.5714,9.3476-7.3845-7.4748,7.3845-4.2087Zm0-15.4252-8.9416,5.0981-2.7236-9.93L217.5287,17.581Zm0-24.3433L205.8635-1.9281l2.7236-9.9288L217.5287-6.76Zm0-20.2335-7.3845-4.2122,7.3845-7.4727Zm37.4625,22.532H243.3041L247.517,4.65Zm-31.9232,0L234.7371.3711,244.6659,3.09l-5.1006,8.943Zm21.5978,12.1955-9.9288,2.7208-11.669-11.6632,16.4972-.0027ZM245.5784-.03l-8.1977-2.2435,8.2627-8.2628Zm-2.2335-12.805-8.26,8.2616-2.247-8.1985Zm-22.5714-9.3489,7.3845,7.4727-7.3845,4.2122Zm0,15.4241,8.9416-5.0968,2.7236,9.9288L220.7735,9.7342Zm0,56.2629V37.8193l7.3845,4.2087Zm8.9416-10.3271-8.9416-5.0981V17.581l11.6652,11.6645Zm3.1227.9144,2.247-8.1991,8.26,8.2642Zm4.5429-10.4976,8.1977-2.2442.065,10.5078Zm5.9234-14.3067h11.6872L247.517,22.67Z"/></g></g><rect class="cls-10" x="31.0001" y="76" width="123" height="36"/><path class="cls-6" d="M47.6583,94.4912a4.1035,4.1035,0,1,1,4.1035,4.1035A4.0216,4.0216,0,0,1,47.6583,94.4912Zm6.81,0a2.7086,2.7086,0,1,0-2.7061,2.8271A2.7193,2.7193,0,0,0,54.4678,94.4912Z"/><path class="cls-6" d="M59.5049,90.5088h2.3213a4.6173,4.6173,0,0,1,2.3545.4619,2.04,2.04,0,0,1,1.0225,1.87,2.2284,2.2284,0,0,1-1.7715,2.2109L65.83,98.4736H64.1915l-2.2227-3.2676H60.9014v3.2676H59.5049Zm2.5078,3.5859a2.2939,2.2939,0,0,0,1.3867-.3184.9969.9969,0,0,0,.4072-.8477,1.0076,1.0076,0,0,0-.5723-.957,3.1755,3.1755,0,0,0-1.4854-.22h-.8477v2.3428Z"/><path class="cls-6" d="M69.0753,90.5088h2.2109a5.5593,5.5593,0,0,1,3.08.7256,3.7326,3.7326,0,0,1,1.65,3.2344,3.7956,3.7956,0,0,1-1.4521,3.1133,5.4954,5.4954,0,0,1-3.4541.8916H69.0753ZM71.2315,97.23a3.8673,3.8673,0,0,0,2.3652-.5723,2.8112,2.8112,0,0,0-.0771-4.4,4.0068,4.0068,0,0,0-2.3-.5059h-.748V97.23Z"/><path class="cls-6" d="M79.6241,90.5088h4.752V91.752H81.0206v1.98h2.916v1.1982h-2.916v2.3h3.4658v1.2432H79.6241Z"/><path class="cls-6" d="M88.16,90.5088h2.3213a4.6173,4.6173,0,0,1,2.3545.4619,2.04,2.04,0,0,1,1.0225,1.87,2.2284,2.2284,0,0,1-1.7715,2.2109l2.3984,3.4219H92.8467l-2.2227-3.2676H89.5567v3.2676H88.16Zm2.5078,3.5859a2.2939,2.2939,0,0,0,1.3867-.3184.9969.9969,0,0,0,.4072-.8477,1.0076,1.0076,0,0,0-.5723-.957,3.1755,3.1755,0,0,0-1.4854-.22h-.8477v2.3428Z"/><path class="cls-6" d="M102.7784,98.4736V90.5088h1.32l2.8828,3.8389c.4951.66.957,1.2871,1.4189,1.9258l.0225-.0107c-.0225-.748-.0225-1.5625-.0225-2.41V90.5088h1.3535v7.9648h-1.32l-2.8828-3.84c-.4951-.66-.957-1.2871-1.4189-1.9248l-.0215.0107c.0215.748.0215,1.5625.0215,2.4092v3.3447Z"/><path class="cls-6" d="M113.3839,94.4912a4.1035,4.1035,0,1,1,4.1035,4.1035A4.0216,4.0216,0,0,1,113.3839,94.4912Zm6.81,0a2.7086,2.7086,0,1,0-2.7061,2.8271A2.7193,2.7193,0,0,0,120.1934,94.4912Z"/><path class="cls-6" d="M124.2071,90.5088h1.4854l1.166,3.8721c.209.6934.418,1.4189.6055,2.1016h.0215c.1875-.6709.418-1.4307.627-2.1123l1.1992-3.8613h1.0234l1.1992,3.8721c.2422.7813.4287,1.3975.627,2.1016h.0225c.1865-.6826.3955-1.4307.6045-2.1123l1.166-3.8613h1.42l-2.4648,7.9648h-1.4854l-1.0557-3.41c-.1982-.6494-.3965-1.2988-.5723-1.915h-.0215c-.1768.6162-.3633,1.2432-.5615,1.8926l-1.0674,3.4326H126.66Z"/><path class="cls-10" d="M79.2432,44.6255a.9714.9714,0,0,0,.9111-.72l1.14-5.6729c.12-.6357.1445-.7432-.72-.9111v-.3242h2.627c1.8711,0,2.5908.6836,2.5908,1.584a2.5123,2.5123,0,0,1-1.8115,2.1465,1.8868,1.8868,0,0,1,1.5957,1.7266c0,1.4395-1.332,2.543-3.4541,2.543H81.0547c-.9,0-1.8115.0361-1.8115.0361Zm2.5908-.1436c1.8584,0,2.375-1.0557,2.375-1.8594,0-1.3545-1.1758-1.4873-1.8838-1.4873H82.086l-.1562.12-.5039,2.543a5.0678,5.0678,0,0,1-.1914.6836ZM82.9971,40.62a1.8782,1.8782,0,0,0,1.4395-1.835,1.1453,1.1453,0,0,0-1.2354-1.2715h-.3955l-.168.1328L82.0616,40.62Z"/><path class="cls-10" d="M87.3546,40.5239c0-.18-.0605-.3359-.2881-.3359H86.671v-.3594a6.2475,6.2475,0,0,0,1.9912-.54l.0352.0361c0,1.1152-.791,3.7422-.791,4.39,0,.3477.12.5635.4434.5635.8281,0,1.7031-1.3916,1.8955-2.3027a13.3409,13.3409,0,0,0,.3838-2.3145l1.2227-.18c0,1.0547-.875,4.1494-.875,4.6768,0,.1807.0957.2764.252.2764a1.5,1.5,0,0,0,.6953-.3477l.0479.3711a2.2722,2.2722,0,0,1-1.4746.6836.6152.6152,0,0,1-.6963-.6953,4.2715,4.2715,0,0,1,.1084-.8154h-.0244a2.9026,2.9026,0,0,1-2.1582,1.5107.9775.9775,0,0,1-1.0439-1.1152C86.6827,43.2349,87.3546,41.0161,87.3546,40.5239Z"/><path class="cls-10" d="M91.8438,46.7485a2.0767,2.0767,0,0,0,1.6309-.8516l.1436-.168a1.2939,1.2939,0,0,0,.2764-.8271,19.7952,19.7952,0,0,0-.4316-4.3779.4663.4663,0,0,0-.5156-.3359h-.2285V39.84a6.4038,6.4038,0,0,0,1.7988-.5518l.0488.0244a33.0324,33.0324,0,0,1,.4072,4.6289,12.3626,12.3626,0,0,0,1.9072-3.5381c0-.1914-.18-.3115-.4316-.3115v-.3115l1.5713-.3477.0352.0713a8.9844,8.9844,0,0,1-.6357,1.2832A30.6194,30.6194,0,0,1,92.8028,47.3a1.5838,1.5838,0,0,1-1.0557.54.5433.5433,0,0,1-.5752-.5283C91.1719,47.0122,91.3633,46.7485,91.8438,46.7485Z"/><path class="cls-10" d="M100.5665,43.4624c0-1.7031,1.2959-4.0293,3.5146-4.0293.5752,0,1.0557.1436,1.5225.1436a1.7971,1.7971,0,0,0,.36-.0361l.0244.0361a5.2228,5.2228,0,0,0-.3848,1.2588l-.5273,2.4229a6.2578,6.2578,0,0,0-.168.8994.2409.2409,0,0,0,.252.2764,1.3706,1.3706,0,0,0,.708-.36l.0361.3838a2.1869,2.1869,0,0,1-1.4756.6836.6156.6156,0,0,1-.6953-.6953,4.4282,4.4282,0,0,1,.1191-.8154h-.0234s-.8633,1.5107-2.0146,1.5107C101.1065,45.1411,100.5665,44.5776,100.5665,43.4624Zm3.7061-1.8945.3359-1.4756a1.2026,1.2026,0,0,0-.6475-.2158c-.9834,0-2.123,1.751-2.123,3.4424,0,.6592.1924.9707.5283.9707C103.2657,44.29,104.0333,42.6108,104.2725,41.5679Z"/><path class="cls-10" d="M65.2618,54.854c1.0313,0,2.2422.2275,2.7461.2637L67.6485,57h-.4443c-.0117-1.3193-1.0791-1.6309-2.0029-1.6309-2.0381,0-3.07,1.6553-3.07,3.5146a3.4135,3.4135,0,0,0,3.4668,3.67,4.6457,4.6457,0,0,0,1.1035-.1328V60.7671c0-.5762-.0488-.72-1.1035-.876v-.3232h2.7578l.0605.1914s-.4678.2158-.4678,1.14V62.83a23.7376,23.7376,0,0,1-2.7949.3115c-2.4229,0-4.4375-1.4033-4.4375-3.9814A4.1955,4.1955,0,0,1,65.2618,54.854Z"/><path class="cls-10" d="M69.129,62.6616a.7114.7114,0,0,0,.72-.7793V58.9917c0-.5039-.0127-.8037-.36-.8037h-.5156V57.84a12.98,12.98,0,0,0,2.1953-.5752l.0234.0352a5.3552,5.3552,0,0,0-.12,1.3672v3.2148a3.5593,3.5593,0,0,1-.06.6475l.9951.1084-.0479.3232-2.83.0723Zm.4678-7.1123a.7558.7558,0,0,1,1.5107,0,.7558.7558,0,0,1-1.5107,0Z"/><path class="cls-10" d="M72.5733,62.6616a.7107.7107,0,0,0,.7188-.7793V58.2485h-.7432v-.42l.7432-.2637v-.3486c0-1.7744,1.0322-2.998,2.5547-2.998.624,0,1.416.2275,1.416.7676a.534.534,0,0,1-.5645.5273c-.4912,0-.8389-.707-1.3672-.707-.5752,0-.8154.5879-.8154,2.11v.66h1.6309l-.1074.6357H74.6475l-.1318.1318v3.5381a3.5593,3.5593,0,0,1-.06.6475l1.2588.1084-.0479.3232-3.0937.0723Z"/><path class="cls-10" d="M77.18,59.0278c0-.3477.0361-.7793.0361-.7793h-.7793v-.42a2.0535,2.0535,0,0,0,.8271-.3721l.4443-1.3311.7549.0234.0361.0361a4.2327,4.2327,0,0,0-.1074,1.1875v.2041H80.19l-.084.6357H78.5352l-.1318.1318v2.8779c0,.6963.168,1.0918.8037,1.0918a2.7349,2.7349,0,0,0,1.0557-.2637l.168.2637a2.6935,2.6935,0,0,1-1.8594.8271c-.8633,0-1.3916-.4678-1.3916-1.57Z"/><path class="cls-10" d="M83.7315,55.981a1.1628,1.1628,0,0,0-.6953-.6592v-.3242h.708c.8389,0,1.4629-.0479,1.4629-.0479l.0479.0479a1.5139,1.5139,0,0,0-.0723,1.1035l1.68,4.4854c.0713.2168.1553.5039.2158.7324l2.0508-4.9541c.2158-.5391.0723-.8633-.5762-1.043v-.3242H90.46l.0479.1924a2.8813,2.8813,0,0,0-.7793,1.2588L86.97,63.106l-.4795-.1445Z"/><path class="cls-10" d="M93.0889,57.4331a2.5259,2.5259,0,0,1,2.7588,2.6377,2.896,2.896,0,0,1-2.9268,3.07,2.5863,2.5863,0,0,1-2.7344-2.7344A2.7815,2.7815,0,0,1,93.0889,57.4331Zm0,5.2529c1.02,0,1.416-1.2236,1.416-2.3271-.0127-1.14-.4443-2.4707-1.5479-2.4707-.9951,0-1.4268,1.0918-1.4268,2.2188C91.53,61.2944,91.9854,62.686,93.0889,62.686Z"/><path class="cls-10" d="M97.2071,59.0034c0-.5156-.0127-.8154-.36-.8154H96.463v-.3594a14.6453,14.6453,0,0,0,2.0391-.4561l.0361.0361a4.7458,4.7458,0,0,0-.1084,1.2588v2.5068c0,.8877.3125,1.1152.7676,1.1152a2.43,2.43,0,0,0,1.499-.7187V59.0034c0-.5156-.0117-.8154-.3594-.8154h-.3477v-.3594a15.3655,15.3655,0,0,0,2.0029-.4561l.0361.0361a4.7458,4.7458,0,0,0-.1084,1.2588v3.167c0,.6836.2754.6836.6719.6836h.3115l-.0361.3477c-1.4395.1318-2.1709.24-2.1709.24L100.66,63.07a2.8665,2.8665,0,0,0,.0967-.6484v-.5752a2.8228,2.8228,0,0,1-2.123,1.2949c-.8516,0-1.4268-.4551-1.4268-1.6064Z"/><path class="cls-10" d="M106.0987,57.4331c.7188,0,1.9063.2637,1.9063.9346a.492.492,0,0,1-.5156.4922c-.6357,0-.6719-.9717-1.5107-.9717-.8994,0-1.4033.9834-1.4033,2.0986,0,1.1875.5752,2.2314,1.9189,2.2314a2.317,2.317,0,0,0,1.4033-.4561l.1318.2881a2.3422,2.3422,0,0,1-2.0508,1.0908,2.5705,2.5705,0,0,1-2.5791-2.7344A2.799,2.799,0,0,1,106.0987,57.4331Z"/><path class="cls-10" d="M108.6436,62.6616a.7043.7043,0,0,0,.72-.7793V55.814c0-.5039-.0117-.8037-.3594-.8037h-.48v-.3477a11.9855,11.9855,0,0,0,2.1475-.5762l.0361.0361a5.827,5.827,0,0,0-.12,1.3672v2.2188c0,.5752-.0479.8633-.0479.9717a2.8525,2.8525,0,0,1,2.207-1.2471c.8271,0,1.3906.4551,1.3906,1.6182v2.8311a3.3466,3.3466,0,0,1-.06.6357l.9951.12-.0479.3232-2.7344.0723v-.3721a.6742.6742,0,0,0,.623-.7793V59.4c0-.876-.2871-1.0918-.7549-1.0918a2.6019,2.6019,0,0,0-1.5713.6475v2.9268a3.504,3.504,0,0,1-.0605.6475l.876.1084-.0479.3232-2.7109.0723Z"/><path class="cls-10" d="M118.1944,57.4331a2.0118,2.0118,0,0,1,2.11,2.0508,4.534,4.534,0,0,1-.6592.1914l-2.7949.4082-.1074.1436a1.8989,1.8989,0,0,0,1.9072,1.9912,2.3351,2.3351,0,0,0,1.499-.54l.1318.3a2.4536,2.4536,0,0,1-2.0986,1.1631,2.5685,2.5685,0,0,1-2.6152-2.7461A2.7734,2.7734,0,0,1,118.1944,57.4331Zm-1.4512,2.17,2.2783-.3s-.0713-1.3672-1.043-1.3672C117.2471,57.936,116.8155,58.7036,116.7432,59.603Z"/><path class="cls-10" d="M121.1241,62.6616a.7114.7114,0,0,0,.72-.7793V59.0034c0-.5029-.0127-.8027-.36-.8027h-.5156v-.3486a12.4449,12.4449,0,0,0,2.1475-.5869l.0352.0352a6.7492,6.7492,0,0,0-.1436,1.5c.2041-.3838.8877-1.3672,1.6553-1.3672a.6423.6423,0,1,1,.0361,1.2832c-.3242,0-.3721-.2158-.66-.2158a1.59,1.59,0,0,0-.9717.5635v2.8184a3.5593,3.5593,0,0,1-.06.6475l1.1152.1084-.0479.3232-2.95.0723Z"/></g></g></svg>